<svg width="1920" height="1920" viewBox="0 0 1920 1920" fill="none" xmlns="http://www.w3.org/2000/svg">
<path d="M0 960H960L0 769V960Z" fill="url(#paint0_radial_4988_5119)"/>
<path d="M0 563L960 960L0 319V563Z" fill="url(#paint1_radial_4988_5119)"/>
<path d="M0 0L960 960L319 0H0Z" fill="url(#paint2_radial_4988_5119)"/>
<path d="M563 0L960 960L768 0H563Z" fill="url(#paint3_radial_4988_5119)"/>
<path d="M960 0V960L1150 0H960Z" fill="url(#paint4_radial_4988_5119)"/>
<path d="M1358 0L960 960L1603 0H1358Z" fill="url(#paint5_radial_4988_5119)"/>
<path d="M1920 0L960 960L1920 319V0Z" fill="url(#paint6_radial_4988_5119)"/>
<path d="M1920 560L960 960L1920 772V560Z" fill="url(#paint7_radial_4988_5119)"/>
<path d="M1920 960H960L1920 1150V960Z" fill="url(#paint8_radial_4988_5119)"/>
<path d="M1920 1358L960 960L1920 1602V1358Z" fill="url(#paint9_radial_4988_5119)"/>
<path d="M1920 1920L960 960L1601 1920H1920Z" fill="url(#paint10_radial_4988_5119)"/>
<path d="M1360 1920L960 960L1155 1920H1360Z" fill="url(#paint11_radial_4988_5119)"/>
<path d="M960 1920V960L775 1920H960Z" fill="url(#paint12_radial_4988_5119)"/>
<path d="M570 1920L960 960L320 1920H570Z" fill="url(#paint13_radial_4988_5119)"/>
<path d="M0 1920L960 960L0 1600V1920Z" fill="url(#paint14_radial_4988_5119)"/>
<path d="M0 1358L960 960L0 1150V1358Z" fill="url(#paint15_radial_4988_5119)"/>
<defs>
<radialGradient id="paint0_radial_4988_5119" cx="0" cy="0" r="1" gradientUnits="userSpaceOnUse" gradientTransform="translate(960 960) rotate(90) scale(960 960)">
<stop stop-color="white"/>
<stop offset="1" stop-color="white" stop-opacity="0"/>
</radialGradient>
<radialGradient id="paint1_radial_4988_5119" cx="0" cy="0" r="1" gradientUnits="userSpaceOnUse" gradientTransform="translate(960 960) rotate(90) scale(960 960)">
<stop stop-color="white"/>
<stop offset="1" stop-color="white" stop-opacity="0"/>
</radialGradient>
<radialGradient id="paint2_radial_4988_5119" cx="0" cy="0" r="1" gradientUnits="userSpaceOnUse" gradientTransform="translate(960 960) rotate(90) scale(960 960)">
<stop stop-color="white"/>
<stop offset="1" stop-color="white" stop-opacity="0"/>
</radialGradient>
<radialGradient id="paint3_radial_4988_5119" cx="0" cy="0" r="1" gradientUnits="userSpaceOnUse" gradientTransform="translate(960 960) rotate(90) scale(960 960)">
<stop stop-color="white"/>
<stop offset="1" stop-color="white" stop-opacity="0"/>
</radialGradient>
<radialGradient id="paint4_radial_4988_5119" cx="0" cy="0" r="1" gradientUnits="userSpaceOnUse" gradientTransform="translate(960 960) rotate(90) scale(960 960)">
<stop stop-color="white"/>
<stop offset="1" stop-color="white" stop-opacity="0"/>
</radialGradient>
<radialGradient id="paint5_radial_4988_5119" cx="0" cy="0" r="1" gradientUnits="userSpaceOnUse" gradientTransform="translate(960 960) rotate(90) scale(960 960)">
<stop stop-color="white"/>
<stop offset="1" stop-color="white" stop-opacity="0"/>
</radialGradient>
<radialGradient id="paint6_radial_4988_5119" cx="0" cy="0" r="1" gradientUnits="userSpaceOnUse" gradientTransform="translate(960 960) rotate(90) scale(960 960)">
<stop stop-color="white"/>
<stop offset="1" stop-color="white" stop-opacity="0"/>
</radialGradient>
<radialGradient id="paint7_radial_4988_5119" cx="0" cy="0" r="1" gradientUnits="userSpaceOnUse" gradientTransform="translate(960 960) rotate(90) scale(960 960)">
<stop stop-color="white"/>
<stop offset="1" stop-color="white" stop-opacity="0"/>
</radialGradient>
<radialGradient id="paint8_radial_4988_5119" cx="0" cy="0" r="1" gradientUnits="userSpaceOnUse" gradientTransform="translate(960 960) rotate(90) scale(960 960)">
<stop stop-color="white"/>
<stop offset="1" stop-color="white" stop-opacity="0"/>
</radialGradient>
<radialGradient id="paint9_radial_4988_5119" cx="0" cy="0" r="1" gradientUnits="userSpaceOnUse" gradientTransform="translate(960 960) rotate(90) scale(960 960)">
<stop stop-color="white"/>
<stop offset="1" stop-color="white" stop-opacity="0"/>
</radialGradient>
<radialGradient id="paint10_radial_4988_5119" cx="0" cy="0" r="1" gradientUnits="userSpaceOnUse" gradientTransform="translate(960 960) rotate(90) scale(960 960)">
<stop stop-color="white"/>
<stop offset="1" stop-color="white" stop-opacity="0"/>
</radialGradient>
<radialGradient id="paint11_radial_4988_5119" cx="0" cy="0" r="1" gradientUnits="userSpaceOnUse" gradientTransform="translate(960 960) rotate(90) scale(960 960)">
<stop stop-color="white"/>
<stop offset="1" stop-color="white" stop-opacity="0"/>
</radialGradient>
<radialGradient id="paint12_radial_4988_5119" cx="0" cy="0" r="1" gradientUnits="userSpaceOnUse" gradientTransform="translate(960 960) rotate(90) scale(960 960)">
<stop stop-color="white"/>
<stop offset="1" stop-color="white" stop-opacity="0"/>
</radialGradient>
<radialGradient id="paint13_radial_4988_5119" cx="0" cy="0" r="1" gradientUnits="userSpaceOnUse" gradientTransform="translate(960 960) rotate(90) scale(960 960)">
<stop stop-color="white"/>
<stop offset="1" stop-color="white" stop-opacity="0"/>
</radialGradient>
<radialGradient id="paint14_radial_4988_5119" cx="0" cy="0" r="1" gradientUnits="userSpaceOnUse" gradientTransform="translate(960 960) rotate(90) scale(960 960)">
<stop stop-color="white"/>
<stop offset="1" stop-color="white" stop-opacity="0"/>
</radialGradient>
<radialGradient id="paint15_radial_4988_5119" cx="0" cy="0" r="1" gradientUnits="userSpaceOnUse" gradientTransform="translate(960 960) rotate(90) scale(960 960)">
<stop stop-color="white"/>
<stop offset="1" stop-color="white" stop-opacity="0"/>
</radialGradient>
</defs>
</svg>
